<svg width="118" height="34" viewBox="0 0 118 34" fill="none" xmlns="http://www.w3.org/2000/svg">
<path d="M8.528 10.776V27H6.344V10.776H0.572V8.852H14.3V10.776H8.528ZM20.4577 27.312C19.5564 27.312 18.7331 27.1473 17.9877 26.818C17.2424 26.4887 16.6011 26.0207 16.0637 25.414C15.5437 24.79 15.1364 24.0533 14.8417 23.204C14.5471 22.3373 14.3997 21.3667 14.3997 20.292C14.3997 19.2347 14.5471 18.2727 14.8417 17.406C15.1364 16.5393 15.5437 15.8027 16.0637 15.196C16.6011 14.572 17.2424 14.0953 17.9877 13.766C18.7331 13.4367 19.5564 13.272 20.4577 13.272C21.3591 13.272 22.1737 13.4367 22.9017 13.766C23.6471 14.0953 24.2884 14.572 24.8257 15.196C25.3631 15.8027 25.7791 16.5393 26.0737 17.406C26.3684 18.2727 26.5157 19.2347 26.5157 20.292C26.5157 21.3667 26.3684 22.3373 26.0737 23.204C25.7791 24.0533 25.3631 24.79 24.8257 25.414C24.2884 26.0207 23.6471 26.4887 22.9017 26.818C22.1737 27.1473 21.3591 27.312 20.4577 27.312ZM20.4577 25.466C21.5844 25.466 22.5031 25.1193 23.2137 24.426C23.9244 23.7327 24.2797 22.6753 24.2797 21.254V19.33C24.2797 17.9087 23.9244 16.8513 23.2137 16.158C22.5031 15.4647 21.5844 15.118 20.4577 15.118C19.3311 15.118 18.4124 15.4647 17.7017 16.158C16.9911 16.8513 16.6357 17.9087 16.6357 19.33V21.254C16.6357 22.6753 16.9911 23.7327 17.7017 24.426C18.4124 25.1193 19.3311 25.466 20.4577 25.466ZM38.5166 24.816H38.4126C37.5979 26.48 36.2892 27.312 34.4866 27.312C33.6546 27.312 32.9006 27.1473 32.2246 26.818C31.5486 26.4887 30.9679 26.0207 30.4826 25.414C30.0146 24.8073 29.6506 24.0707 29.3906 23.204C29.1479 22.3373 29.0266 21.3667 29.0266 20.292C29.0266 19.2173 29.1479 18.2467 29.3906 17.38C29.6506 16.5133 30.0146 15.7767 30.4826 15.17C30.9679 14.5633 31.5486 14.0953 32.2246 13.766C32.9006 13.4367 33.6546 13.272 34.4866 13.272C35.4226 13.272 36.2199 13.48 36.8786 13.896C37.5546 14.2947 38.0659 14.9187 38.4126 15.768H38.5166V7.76H40.5966V27H38.5166V24.816ZM35.0586 25.44C35.5266 25.44 35.9686 25.3793 36.3846 25.258C36.8179 25.1367 37.1906 24.9633 37.5026 24.738C37.8146 24.4953 38.0572 24.2093 38.2306 23.88C38.4212 23.5333 38.5166 23.1433 38.5166 22.71V17.718C38.5166 17.354 38.4212 17.016 38.2306 16.704C38.0572 16.3747 37.8146 16.0973 37.5026 15.872C37.1906 15.6467 36.8179 15.4733 36.3846 15.352C35.9686 15.2133 35.5266 15.144 35.0586 15.144C33.8799 15.144 32.9526 15.5167 32.2766 16.262C31.6006 16.99 31.2626 17.952 31.2626 19.148V21.436C31.2626 22.632 31.6006 23.6027 32.2766 24.348C32.9526 25.076 33.8799 25.44 35.0586 25.44ZM50.0886 27.312C49.1873 27.312 48.3639 27.1473 47.6186 26.818C46.8733 26.4887 46.2319 26.0207 45.6946 25.414C45.1746 24.79 44.7673 24.0533 44.4726 23.204C44.1779 22.3373 44.0306 21.3667 44.0306 20.292C44.0306 19.2347 44.1779 18.2727 44.4726 17.406C44.7673 16.5393 45.1746 15.8027 45.6946 15.196C46.2319 14.572 46.8733 14.0953 47.6186 13.766C48.3639 13.4367 49.1873 13.272 50.0886 13.272C50.9899 13.272 51.8046 13.4367 52.5326 13.766C53.2779 14.0953 53.9193 14.572 54.4566 15.196C54.9939 15.8027 55.4099 16.5393 55.7046 17.406C55.9993 18.2727 56.1466 19.2347 56.1466 20.292C56.1466 21.3667 55.9993 22.3373 55.7046 23.204C55.4099 24.0533 54.9939 24.79 54.4566 25.414C53.9193 26.0207 53.2779 26.4887 52.5326 26.818C51.8046 27.1473 50.9899 27.312 50.0886 27.312ZM50.0886 25.466C51.2153 25.466 52.1339 25.1193 52.8446 24.426C53.5553 23.7327 53.9106 22.6753 53.9106 21.254V19.33C53.9106 17.9087 53.5553 16.8513 52.8446 16.158C52.1339 15.4647 51.2153 15.118 50.0886 15.118C48.9619 15.118 48.0433 15.4647 47.3326 16.158C46.6219 16.8513 46.2666 17.9087 46.2666 19.33V21.254C46.2666 22.6753 46.6219 23.7327 47.3326 24.426C48.0433 25.1193 48.9619 25.466 50.0886 25.466ZM70.2274 19.564H63.3114V27H59.3594V8.852H63.3114V16.08H70.2274V8.852H74.1794V27H70.2274V19.564ZM83.6599 27.312C82.6199 27.312 81.6925 27.1473 80.8779 26.818C80.0632 26.4713 79.3699 25.9947 78.7979 25.388C78.2432 24.764 77.8185 24.01 77.5239 23.126C77.2465 22.242 77.1079 21.254 77.1079 20.162C77.1079 19.0873 77.2465 18.1167 77.5239 17.25C77.8012 16.366 78.2085 15.612 78.7459 14.988C79.3005 14.364 79.9765 13.8873 80.7739 13.558C81.5712 13.2113 82.4812 13.038 83.5039 13.038C84.6305 13.038 85.5925 13.2287 86.3899 13.61C87.2045 13.9913 87.8632 14.5027 88.3659 15.144C88.8859 15.7853 89.2585 16.5307 89.4839 17.38C89.7265 18.212 89.8479 19.0873 89.8479 20.006V21.15H81.0859V21.358C81.0859 22.2593 81.3285 22.9787 81.8139 23.516C82.2992 24.036 83.0619 24.296 84.1019 24.296C84.8992 24.296 85.5492 24.14 86.0519 23.828C86.5545 23.4987 87.0225 23.1087 87.4559 22.658L89.3799 25.05C88.7732 25.7607 87.9759 26.3153 86.9879 26.714C86.0172 27.1127 84.9079 27.312 83.6599 27.312ZM83.5819 15.872C82.8019 15.872 82.1865 16.132 81.7359 16.652C81.3025 17.1547 81.0859 17.8307 81.0859 18.68V18.888H85.8699V18.654C85.8699 17.822 85.6792 17.1547 85.2979 16.652C84.9339 16.132 84.3619 15.872 83.5819 15.872ZM92.5655 27V13.35H96.4135V16.314H96.5435C96.6128 15.9327 96.7342 15.5687 96.9075 15.222C97.0808 14.858 97.3062 14.5373 97.5835 14.26C97.8782 13.9827 98.2248 13.766 98.6235 13.61C99.0222 13.4367 99.4902 13.35 100.027 13.35H100.703V16.938H99.7415C98.6148 16.938 97.7742 17.0853 97.2195 17.38C96.6822 17.6747 96.4135 18.2207 96.4135 19.018V27H92.5655Z" fill="white"/>
<path d="M106.75 19.25L109 21.5L115 15.5" stroke="#ACFF79" stroke-width="2" stroke-linecap="round" stroke-linejoin="round"/>
<path d="M115 20V24.5C115 24.8978 114.842 25.2794 114.561 25.5607C114.279 25.842 113.898 26 113.5 26H104.5C104.102 26 103.721 25.842 103.439 25.5607C103.158 25.2794 103 24.8978 103 24.5V15.5C103 15.1022 103.158 14.7206 103.439 14.4393C103.721 14.158 104.102 14 104.5 14H111.25" stroke="#ACFF79" stroke-width="2" stroke-linecap="round" stroke-linejoin="round"/>
</svg>
