<svg width="24" height="25" viewBox="0 0 24 25" fill="none" xmlns="http://www.w3.org/2000/svg">
<path d="M5.47092 6.51501V19.029C5.47079 19.3864 5.54108 19.7403 5.67778 20.0704C5.81447 20.4006 6.0149 20.7006 6.26759 20.9533C6.52029 21.206 6.8203 21.4065 7.15048 21.5432C7.48067 21.6798 7.83456 21.7501 8.19192 21.75H15.8099C16.5313 21.75 17.2232 21.4634 17.7333 20.9533C18.2434 20.4432 18.5299 19.7514 18.5299 19.03V6.51401M3.29492 6.51501H20.7069" stroke="#F87171" stroke-width="1.5" stroke-linecap="round" stroke-linejoin="round"/>
<path d="M8.73633 6.515V4.882C8.73633 4.6676 8.77857 4.4553 8.86065 4.25723C8.94273 4.05916 9.06303 3.87921 9.21468 3.72765C9.36633 3.57609 9.54636 3.4559 9.74448 3.37394C9.9426 3.29198 10.1549 3.24987 10.3693 3.25H13.6333C13.8477 3.24987 14.0601 3.29198 14.2582 3.37394C14.4563 3.4559 14.6363 3.57609 14.788 3.72765C14.9396 3.87921 15.0599 4.05916 15.142 4.25723C15.2241 4.4553 15.2663 4.6676 15.2663 4.882V6.515M9.82533 17.492V12.053M14.1783 17.492V12.053" stroke="#F87171" stroke-width="1.5" stroke-linecap="round" stroke-linejoin="round"/>
</svg>
